PathFileType	3	(X/Y/Z)	D:\Jess\Healthy\Labelled\HA18\20250730\SRRun01.trc
DataRate	CameraRate	NumFrames	NumMarkers	Units	OrigDataRate	OrigDataStartFrame	OrigNumFrames
250.0	250.0	4	33	mm	250.0	35312	2501
Frame#	Time	C7			T10			CLAV			LSHO			RSHO			LASIS			RASIS			LPSIS			RPSIS			LILCR			RILCR			LGTR			LTHI			LLTHI			LLEP			LPSH			LLSH			LDSH			LLMAL			LTOE			L5TH			LHEE			RGTR			RTHI			RLTHI			RLEP			RPSH			RLSH			RDSH			RLMAL			RTOE			R5TH			RHEE			
		X1	Y1	Z1	X2	Y2	Z2	X3	Y3	Z3	X4	Y4	Z4	X5	Y5	Z5	X6	Y6	Z6	X7	Y7	Z7	X8	Y8	Z8	X9	Y9	Z9	X10	Y10	Z10	X11	Y11	Z11	X12	Y12	Z12	X13	Y13	Z13	X14	Y14	Z14	X15	Y15	Z15	X16	Y16	Z16	X17	Y17	Z17	X18	Y18	Z18	X19	Y19	Z19	X20	Y20	Z20	X21	Y21	Z21	X22	Y22	Z22	X23	Y23	Z23	X24	Y24	Z24	X25	Y25	Z25	X26	Y26	Z26	X27	Y27	Z27	X28	Y28	Z28	X29	Y29	Z29	X30	Y30	Z30	X31	Y31	Z31	X32	Y32	Z32	X33	Y33	Z33	

313	141.244	1075.133199823407	1408.388877084894	-300.3447684887316	999.4375789587675	1168.083011947107	-331.8189970933711	1187.703200074586	1287.530455444744	-276.5233425775626	1173.149032054841	1363.210566491672	-440.2887630388461	1106.902112886396	1345.646993957348	-138.0610024642816	1169.97391449943	909.4058213539804	-419.2265023069896	1139.235966065417	920.8165295968886	-204.9804373354189	963.191176989826	961.3579284104786	-355.2971947207512	954.9434581644113	956.9071944885969	-311.3328531466643	1117.032215304257	988.1588743729426	-476.5074704991612	1079.141700024846	987.1966404319591	-162.681619873298	1097.715499853928	819.2238610807302	-505.4863094149471	1213.128219306062	660.0787197375943	-414.6927782880474	1116.863937969436	553.0068873735578	-479.5516942748638	1106.126613296268	450.2966445685399	-468.7263224721725	1073.989935270588	366.3428094872879	-436.5327547893069	908.8503013094096	391.7108805999674	-489.4963831814662	857.5987547640414	296.6018926260184	-447.7456930119413	744.978028819963	324.4537127958943	-468.6616346024559	739.9917282662122	173.9337343765516	-493.1987280319414	703.4937799651402	198.9682911777517	-521.5955914471281	711.3223226492562	368.5358989197922	-404.0048894925517	1077.8026208298	830.6400033003075	-130.9150935238849	1238.162179540432	708.276262343261	-213.8598325651795	1180.592886157832	579.6158023500715	-180.8073218440405	1201.896887040087	452.5183560048873	-213.0173541789413	1233.055640564329	391.3983477426736	-267.422276330058	1128.660185667801	274.33803628056	-208.9655405667879	1169.609496954652	171.8924785407052	-281.4163583478379	1110.617227461916	106.0958509441136	-250.2731717619482	1232.464854311057	64.05965327055929	-266.5618150214627	1203.683865722098	40.54278508180735	-219.9878601014648	1020.828796616284	83.61056100851681	-297.7005093121123	
314	141.248	1075.140350021986	1407.087606415102	-299.4677417772643	998.6530968829284	1166.673728571263	-330.7100224585854	1187.705911265767	1285.396577195881	-276.8544536906017	1171.963708666053	1361.364737807309	-440.7428716143953	1107.620020066169	1343.644522926349	-137.3901673801994	1168.791752585128	906.6164877426107	-419.3682835942986	1138.020610475716	918.3441415335791	-203.982094056507	961.452287889981	958.1748104177714	-355.5430791714795	953.2051899265592	954.0793678640227	-311.7241818075751	1115.683787399764	984.1311221618391	-476.5633223056444	1078.329051308867	982.7725111833997	-162.8129034883011	1097.42848640416	815.9874117969272	-505.6540563914551	1215.810045941448	660.6682626596278	-416.048126394162	1121.026223979647	552.3921354353167	-480.3706251476705	1112.646443501927	449.886644460755	-469.4997335864815	1081.527750949829	366.058126125288	-437.188503644866	916.0200075814699	391.5353634523697	-489.0273099186762	865.3221991804171	295.9599609421863	-447.8706438742138	752.7322383018349	323.6128092037538	-467.8958883425685	749.9770629077743	173.424502299932	-494.1631557385468	713.485855548741	198.3045478012743	-522.6247743290076	717.870259723364	366.4827970149784	-402.9979826744092	1076.091518423689	828.7964843439408	-130.5881346734783	1236.335676772397	705.8541210069041	-211.5488862680218	1177.476228388215	577.7653267902106	-180.3242730162711	1198.373090130331	451.1730013395565	-212.7747896723592	1228.745268366872	389.5167505204098	-266.9773747110546	1122.053823382018	274.4147617953867	-208.8458212135241	1160.858163952819	171.2801911507383	-281.322928474435	1100.155208230277	106.6215691203644	-250.318245460728	1221.554409791346	63.76721009348665	-266.4693314884444	1192.566789021387	40.62029926353001	-219.7846463258999	1009.959739301596	84.25722842622079	-297.7161567664361	
315	141.252	1075.17403052549	1405.986441185854	-298.6012284995048	997.8808861558682	1165.532465585914	-329.6406309787067	1187.696743077898	1283.476097775643	-277.2071835817435	1170.75092197633	1359.732044207814	-441.1625937350964	1108.4550757358	1341.817078959021	-136.8043045365275	1167.597943946515	904.0536487677355	-419.5361222526234	1136.888745960975	916.1558798198648	-203.0594681283547	959.8399769693956	955.4269219743908	-355.9289649988217	951.5664628230221	951.67215117273	-312.2846928080722	1114.223447040291	980.436774117349	-476.5768986973367	1077.331183182364	978.8338166740501	-163.0144254018138	1096.981427131319	813.1303444237981	-505.85363985434	1218.4655338985	661.6011727867505	-417.3200423803913	1125.279437245509	552.0722301862278	-481.1076997161024	1119.279416775857	449.7422956929706	-470.1295121107275	1089.171553209931	365.9941986994135	-437.66025230709	923.3458127518863	391.2826814508805	-488.5271005938941	873.2680973733164	295.2207916070783	-447.8937827810836	760.6662925869731	322.4385854686894	-467.1452844915422	760.362921699169	172.6198535233964	-494.8949603903654	723.856333873391	197.2266311951806	-523.4750103171295	724.5116489774814	364.1286528995777	-402.1234879876604	1074.343903647963	827.3210637043837	-130.3167369564635	1234.292329909046	703.5195081469145	-209.4658959786735	1174.136162755067	575.9715417857533	-179.933845567538	1194.346785485973	449.735149864889	-212.5220581456201	1224.004146438929	387.5310257101953	-266.4892242988815	1115.153008494695	274.3516368372455	-208.6763038487072	1151.860096763748	170.6742834942583	-281.1787861428015	1089.562727403541	107.1167586606681	-250.2928955894446	1210.533736605284	63.54145260032598	-266.3290220693	1181.370092370607	40.69332251175424	-219.5714640875222	998.9941434975569	84.83668911922686	-297.6998782298263	
316	141.256	1075.227654341729	1405.08138427838	-297.7461188220081	997.1276374665116	1164.649190127927	-328.6098800920651	1187.67290683964	1281.7766120647	-277.5832476857829	1169.503630941661	1358.324643277544	-441.5482433167131	1109.416887986719	1340.172360192552	-136.3031853258836	1166.402121337674	901.7595093088487	-419.7296988927976	1135.848795502807	914.2724088147057	-202.2284731978779	958.3717241809914	953.1387149325493	-356.4445911053069	950.0457960315757	949.6983037180811	-312.9992434584838	1112.637203306773	977.1401425898813	-476.549721536268	1076.137562125296	975.4572278259765	-163.285792704539	1096.365929342139	810.6875326997214	-506.0731634594488	1221.080731744158	662.8566226426336	-418.4996331687519	1129.615014744124	552.0435111019907	-481.7666861237169	1126.00777086871	449.8622547002332	-470.6238350775754	1096.902796742148	366.1522206169894	-437.9591542225361	930.807701196229	390.9560962155898	-488.0021831259264	881.4230471305699	294.3812148959925	-447.8216778314805	768.7602206721907	320.9339792061571	-466.4102381477887	771.1246962166432	171.5235870334615	-495.4081844186049	734.5730837338426	195.7421526841991	-524.149416797218	731.2467189057434	361.4704065132753	-401.3645274010162	1072.569897186858	826.2110323493035	-130.1033838810282	1232.040011111723	701.2792157563761	-207.6494857046007	1170.565160685568	574.2370594477921	-179.6409628874409	1189.817616637933	448.1966331385102	-212.2703430225812	1218.835146079525	385.4431454308953	-265.9799497754854	1107.962728584677	274.1331297195059	-208.4787463268019	1142.629222311998	170.0630330035912	-280.9986485137791	1078.854182517844	107.5735570212606	-250.2075856028661	1199.417066986214	63.35046029380809	-266.1522149656664	1170.100487902949	40.74356158748213	-219.3537623749886	987.9395655186282	85.35863540407455	-297.6590757362565	
